<svg xmlns="http://www.w3.org/2000/svg" viewBox="0 0 792 768"><defs><style>.cls-1{fill:#17124c;}.cls-2,.cls-3{fill:none;stroke:#90dddd;stroke-miterlimit:10;}.cls-2{stroke-width:3.16px;}.cls-3{stroke-width:3.46px;}.cls-4{fill:#ffffb8;}.cls-5{fill:#ffab15;}.cls-6{fill:#25cc72;}.cls-7{fill:#cc3325;}.cls-8{fill:#0794e6;}.cls-9{font-size:12px;}.cls-10,.cls-11,.cls-12,.cls-13,.cls-9{font-family:OratorStd-Slanted, Orator Std;}.cls-10{font-size:11px;}.cls-11{font-size:10px;}.cls-12{font-size:9px;}.cls-13{font-size:13px;}</style></defs><title>Personal brand map</title><g id="Layer_2" data-name="Layer 2"><rect class="cls-1" width="792" height="768"/></g><g id="Layer_1" data-name="Layer 1"><circle class="cls-2" cx="396" cy="386.37" r="71.36"/><ellipse class="cls-2" cx="396.31" cy="386.37" rx="142.76" ry="134.91"/><circle class="cls-2" cx="396" cy="386.37" r="199.12"/><circle class="cls-2" cx="396" cy="386.37" r="259.18"/><circle class="cls-3" cx="396" cy="384.06" r="341.49"/><circle class="cls-4" cx="396" cy="386.37" r="44.33"/><circle class="cls-5" cx="397.26" cy="259.75" r="29.25"/><circle class="cls-5" cx="396" cy="521.28" r="29.25"/><circle class="cls-5" cx="259" cy="386.44" r="29.25"/><circle class="cls-5" cx="534.33" cy="387.25" r="29.25"/><circle class="cls-6" cx="233" cy="490.21" r="29.25"/><circle class="cls-6" cx="396" cy="187.25" r="29.25"/><circle class="cls-6" cx="561.46" cy="497.21" r="29.25"/><circle class="cls-6" cx="557.58" cy="276.25" r="29.25"/><circle class="cls-6" cx="233" cy="276.75" r="29.25"/><circle class="cls-6" cx="396" cy="584.21" r="29.25"/><circle class="cls-7" cx="396" cy="121.75" r="29.25"/><circle class="cls-6" cx="191" cy="389.25" r="29.25"/><circle class="cls-6" cx="600.92" cy="389.25" r="29.25"/><circle class="cls-7" cx="616.17" cy="239.5" r="29.25"/><circle class="cls-7" cx="668.51" cy="388.44" r="29.25"/><circle class="cls-7" cx="623.17" cy="535.46" r="29.25"/><circle class="cls-7" cx="396" cy="652.25" r="29.25"/><circle class="cls-7" cx="126" cy="388.44" r="29.25"/><circle class="cls-7" cx="172.5" cy="240.5" r="29.25"/><circle class="cls-7" cx="173.5" cy="530.66" r="29.25"/><circle class="cls-7" cx="269.25" cy="616.31" r="29.25"/><circle class="cls-7" cx="516.26" cy="619.31" r="29.25"/><circle class="cls-7" cx="523.07" cy="157" r="29.25"/><circle class="cls-7" cx="283.25" cy="157" r="29.25"/><circle class="cls-8" cx="396" cy="53" r="29.25"/><circle class="cls-8" cx="561.76" cy="88.5" r="29.25"/><circle class="cls-8" cx="683.13" cy="193.5" r="29.25"/><circle class="cls-8" cx="739.01" cy="387.25" r="29.25"/><circle class="cls-8" cx="684.01" cy="573.24" r="29.25"/><circle class="cls-8" cx="551.51" cy="691.38" r="29.25"/><circle class="cls-8" cx="396" cy="720.3" r="29.25"/><circle class="cls-8" cx="225" cy="686.38" r="29.25"/><circle class="cls-8" cx="102.75" cy="574.24" r="29.25"/><circle class="cls-8" cx="62.01" cy="388.25" r="29.25"/><circle class="cls-8" cx="106.57" cy="195.5" r="29.25"/><circle class="cls-8" cx="242" cy="86.37" r="29.25"/><text class="cls-9" transform="translate(360 390.25)">ELYSE WANG</text><circle class="cls-5" cx="499.82" cy="313.8" r="29.25"/><circle class="cls-5" cx="287.25" cy="316.01" r="29.25"/><circle class="cls-5" cx="288.25" cy="455.96" r="29.25"/><circle class="cls-5" cx="506.08" cy="459.16" r="29.25"/><text class="cls-9" transform="translate(371 261)">EMPATHY</text><text class="cls-9" transform="translate(475 315)">HONESTY</text><text class="cls-10" transform="translate(513 391)">GENUINE</text><text class="cls-9" transform="translate(477 462)">CRITICAL</text><text class="cls-10" transform="translate(377.06 511.56)">CON-<tspan x="0" y="13.2">FI-</tspan><tspan x="0" y="26.4">DENCE</tspan></text><text class="cls-10" transform="translate(269.25 445.77)">ENTHU-<tspan x="0" y="13.2">SI-</tspan><tspan x="0" y="26.4">ASM</tspan></text><text class="cls-10" transform="translate(243 383)">SELF-<tspan x="0" y="13.2">LESS</tspan></text><text class="cls-10" transform="translate(263.25 318.01)">ETHICAL</text><text class="cls-10" transform="translate(377.06 177.45)">CIVIC<tspan x="0" y="13.2">IMAGI-</tspan><tspan x="0" y="26.4">NATION</tspan></text><text class="cls-11" transform="translate(577 384)">MINORITY<tspan x="0" y="12">RIGHTS</tspan></text><text class="cls-11" transform="translate(537.33 493.41)">DIGITAL<tspan x="0" y="12">LITERACY</tspan></text><text class="cls-11" transform="translate(376 575.24)">WOMEN’S<tspan x="0" y="12">LEGAL</tspan><tspan x="0" y="24">RIGHTS</tspan></text><text class="cls-12" transform="translate(212 476.49)">ASIAN-<tspan x="0" y="10.8">AMERICAN</tspan><tspan x="0" y="21.6">REPRESEN</tspan><tspan x="0" y="32.4">TATION</tspan></text><text class="cls-11" transform="translate(175.06 375)">TECH<tspan x="0" y="12">AND</tspan><tspan x="0" y="24">EDU-</tspan><tspan x="0" y="36">CATION</tspan></text><text class="cls-11" transform="translate(534.51 266)">ART<tspan x="0" y="12">AND</tspan><tspan x="0" y="24">ACTIVISM</tspan></text><text class="cls-11" transform="translate(211.75 267.75)">INTER-<tspan x="0" y="12">NATION-</tspan><tspan x="0" y="24">AL</tspan></text><text class="cls-9" transform="translate(374.06 116.75)">PHOTO-<tspan x="0" y="14.4">GRAPHY</tspan></text><text class="cls-9" transform="translate(496.82 151.75)">graphic<tspan x="0" y="14.4">design</tspan></text><text class="cls-11" transform="translate(593.92 230.5)">photo-<tspan x="0" y="12">journal-</tspan><tspan x="0" y="24">ism</tspan></text><text class="cls-9" transform="translate(650.51 384.44)">think-<tspan x="0" y="14.4">tank</tspan></text><text class="cls-9" transform="translate(598.17 536.46)">Museums</text><text class="cls-12" transform="translate(492.82 615.31)">political<tspan x="0" y="10.8">campaigns</tspan></text><text class="cls-10" transform="translate(380 644.25)">Tech<tspan x="0" y="13.2">start</tspan><tspan x="0" y="26.4">ups</tspan></text><text class="cls-9" transform="translate(262.25 151)">tele-<tspan x="0" y="14.4">vision</tspan></text><text class="cls-11" transform="translate(146.5 237.5)">Streaming<tspan x="0" y="12">sites</tspan></text><text class="cls-13" transform="translate(102 390.44)">critic</text><text class="cls-9" transform="translate(246 610.46)">NON-<tspan x="0" y="14.4">PROFITS</tspan></text><text class="cls-9" transform="translate(159.5 532.66)">LAW</text><text class="cls-10" transform="translate(369 54)">INNOVATE</text><text class="cls-12" transform="translate(534.76 88.5)">COMPROMISE</text><text class="cls-10" transform="translate(665.13 193.5)">LISTEN</text><text class="cls-12" transform="translate(713.01 389.25)">ANTICIPATE</text><text class="cls-9" transform="translate(666.01 575.24)">WRITE</text><text class="cls-10" transform="translate(525.51 694.38)">QUESTION</text><text class="cls-10" transform="translate(370 724.3)">DELEGATE</text><text class="cls-10" transform="translate(203 687.38)">PROTEST</text><text class="cls-10" transform="translate(216 88.37)">CRITIQUE</text><text class="cls-10" transform="translate(85.57 193.5)">Commun-<tspan x="0" y="13.2">icate</tspan></text><text class="cls-9" transform="translate(37.01 389.25)">educate</text><text class="cls-9" transform="translate(76.75 577.24)">produce</text></g></svg>